<svg xmlns="http://www.w3.org/2000/svg" viewBox="0 0 37.65 55.49"><defs><style>.cls-1{fill:#937162;}</style></defs><g id="Layer_2" data-name="Layer 2"><g id="icons"><path class="cls-1" d="M22,42.06l-1.72,5.49c-.22.7-.45,1.46-.68,2.28s-.43,1.66-.62,2.49H18.9c-.18-.83-.39-1.67-.63-2.5s-.46-1.58-.67-2.25l-1.74-5.51H12.49l4.67,13.2H20.7l4.55-13.2Z"></path><path class="cls-1" d="M30.17,45a5.29,5.29,0,0,0-2.06.39,4.49,4.49,0,0,0-1.6,1.1,4.76,4.76,0,0,0-1,1.71,6.12,6.12,0,0,0-.37,2.18,5.41,5.41,0,0,0,.45,2.31,4.51,4.51,0,0,0,1.22,1.59,5,5,0,0,0,1.78.93,7.21,7.21,0,0,0,2.15.31,9.19,9.19,0,0,0,2.12-.21,7.55,7.55,0,0,0,1.44-.48l-.57-2.14a5,5,0,0,1-1.09.4,6.13,6.13,0,0,1-1.51.16A4,4,0,0,1,29,52.74a1.65,1.65,0,0,1-.82-1.53v-.08h6.5V49.81a4.85,4.85,0,0,0-1.24-3.58A4.41,4.41,0,0,0,30.17,45Zm-1.88,4.09a2.26,2.26,0,0,1,.56-1.4,1.61,1.61,0,0,1,1.22-.51,1.34,1.34,0,0,1,.68.16,1.3,1.3,0,0,1,.46.41,1.79,1.79,0,0,1,.26.6,2.72,2.72,0,0,1,.09.69Z"></path><path class="cls-1" d="M17.57,37.92l.31-.05v2.92a1,1,0,0,0,2,0V37.88l.21,0c.44,0,1,0,1.62,0,3.14,0,8.25-.58,11.56-3.89a16,16,0,0,0,4.17-13.79,2.35,2.35,0,0,0-1.94-1.93,16.55,16.55,0,0,0-10.77,1.87,13.34,13.34,0,0,0,2.32-7.1A16.06,16.06,0,0,0,20.25.44h0a2.36,2.36,0,0,0-2.75,0,16,16,0,0,0-6.79,12.71,13.31,13.31,0,0,0,2.37,7.17,16.48,16.48,0,0,0-10.93-2A2.34,2.34,0,0,0,.22,20.3,16,16,0,0,0,4.39,34.09C7.7,37.39,12.8,38,15.94,38,16.57,38,17.13,37.94,17.57,37.92ZM35.18,20.33a.35.35,0,0,1,.28.29,14,14,0,0,1-3.61,12.05c-3.11,3.11-8.28,3.38-11,3.28l6.8-6.8a1,1,0,0,0,0-1.42,1,1,0,0,0-1.41,0l-6.41,6.42V32.51c.18-2.73.91-6.23,3.23-8.55a13.56,13.56,0,0,1,9.64-3.82A16,16,0,0,1,35.18,20.33ZM18.67,2.07A.33.33,0,0,1,18.88,2a.31.31,0,0,1,.2.07,14,14,0,0,1,6,11.08c0,4.2-3.19,7.91-5.17,9.82V13.69a1,1,0,0,0-2,0V23c-2-1.91-5.17-5.62-5.17-9.81A14,14,0,0,1,18.67,2.07ZM5.81,32.68A14,14,0,0,1,2.19,20.62a.35.35,0,0,1,.29-.29,15.79,15.79,0,0,1,2.42-.19A13.5,13.5,0,0,1,14.53,24c2.85,2.85,3.31,7.44,3.29,10.24l-6.46-6.46a1,1,0,0,0-1.41,0,1,1,0,0,0,0,1.42l6.8,6.8C14.08,36.05,8.91,35.78,5.81,32.68Z"></path></g></g></svg>