<svg xmlns="http://www.w3.org/2000/svg" viewBox="0 0 59.28 57.82"><defs><style>.cls-1{fill:#937162;}</style></defs><g id="Layer_2" data-name="Layer 2"><g id="icons"><path class="cls-1" d="M31.27,10.84a1,1,0,0,0-1.5,1.33,3.17,3.17,0,0,1-.06,4.18c-1,1.32-.79,3.9.39,5.41a1,1,0,0,0,.79.38,1,1,0,0,0,.61-.21,1,1,0,0,0,.17-1.4,3.15,3.15,0,0,1-.38-3A5.13,5.13,0,0,0,31.27,10.84Z"></path><path class="cls-1" d="M35.66,10.84a1,1,0,0,0-1.4-.08,1,1,0,0,0-.09,1.41,3.17,3.17,0,0,1-.06,4.18,5,5,0,0,0,.39,5.41,1,1,0,0,0,.78.38,1,1,0,0,0,.79-1.61,3.15,3.15,0,0,1-.38-3A5.12,5.12,0,0,0,35.66,10.84Z"></path><path class="cls-1" d="M40.09,17.57a5.13,5.13,0,0,0,0-6.73,1,1,0,0,0-1.4-.08,1,1,0,0,0-.09,1.41,3.17,3.17,0,0,1-.06,4.18,5,5,0,0,0,.38,5.41,1,1,0,0,0,1.41.17,1,1,0,0,0,.17-1.4A3.15,3.15,0,0,1,40.09,17.57Z"></path><path class="cls-1" d="M56.09,24.8H48.87V7.34H52.6a2.38,2.38,0,0,0,2.1-1.29,3.39,3.39,0,0,0-.09-3.31A5.23,5.23,0,0,0,50.24,0h-30a5.22,5.22,0,0,0-4.37,2.74,3.37,3.37,0,0,0-.1,3.31,2.39,2.39,0,0,0,2.1,1.29h3.73V24.8h-9L7,19.74a1,1,0,0,0-.68-.26H1a1,1,0,0,0,0,2H6l5.17,4.76V38A12.65,12.65,0,0,0,15,47.08h0a12.18,12.18,0,0,0,23.3,3.33H51.17v6.4a1,1,0,1,0,2,0v-6.4h2.92a3.23,3.23,0,0,0,3.19-3.27V28.07A3.24,3.24,0,0,0,56.09,24.8ZM17.5,3.82A3.29,3.29,0,0,1,20.19,2H50.24a3.3,3.3,0,0,1,2.69,1.82c.33.52.12,1.52-.33,1.52H17.82C17.37,5.34,17.16,4.34,17.5,3.82Zm6.05,3.52H46.87V24.8H23.55Zm3.51,48.48A10.19,10.19,0,1,1,37.25,45.63,10.2,10.2,0,0,1,27.06,55.82Zm30.22-8.67a1.22,1.22,0,0,1-1.19,1.27H38.91A12.18,12.18,0,1,0,15,44a10.71,10.71,0,0,1-1.85-6V26.8h43a1.23,1.23,0,0,1,1.19,1.27Z"></path><circle class="cls-1" cx="27.06" cy="45.63" r="1.98"></circle></g></g></svg>