<svg xmlns="http://www.w3.org/2000/svg" viewBox="0 0 37.65 55.26"><defs><style>.cls-1{fill:#937162;}</style></defs><g id="Layer_2" data-name="Layer 2"><g id="icons"><path class="cls-1" d="M20.26,47.55c-.22.7-.45,1.46-.68,2.28s-.43,1.66-.62,2.49H18.9c-.18-.83-.39-1.67-.63-2.5s-.46-1.58-.67-2.25l-1.74-5.51H12.49l4.67,13.2H20.7l4.55-13.2H22Z"></path><path class="cls-1" d="M37.44,20.3a2.35,2.35,0,0,0-1.94-1.94,16.55,16.55,0,0,0-10.77,1.87,13.34,13.34,0,0,0,2.32-7.1A16.06,16.06,0,0,0,20.25.44h0a2.36,2.36,0,0,0-2.75,0,16,16,0,0,0-6.79,12.71,13.31,13.31,0,0,0,2.37,7.17,16.48,16.48,0,0,0-10.93-2A2.34,2.34,0,0,0,.22,20.3,16,16,0,0,0,4.39,34.09C7.7,37.39,12.8,38,15.94,38c.63,0,1.18,0,1.63,0l.31-.05v2.92a1,1,0,0,0,2,0V37.88l.21,0c.44,0,1,0,1.62,0,3.14,0,8.25-.58,11.56-3.89A16,16,0,0,0,37.44,20.3ZM18.67,2.07A.33.33,0,0,1,18.88,2a.31.31,0,0,1,.2.07,14,14,0,0,1,6,11.08c0,4.2-3.19,7.91-5.17,9.82V13.69a1,1,0,0,0-2,0V23c-2-1.91-5.17-5.62-5.17-9.81A14,14,0,0,1,18.67,2.07ZM5.81,32.68A14,14,0,0,1,2.19,20.62a.35.35,0,0,1,.29-.29,15.79,15.79,0,0,1,2.42-.19A13.5,13.5,0,0,1,14.53,24c2.85,2.85,3.31,7.44,3.29,10.24l-6.46-6.46a1,1,0,0,0-1.41,0,1,1,0,0,0,0,1.42l6.8,6.8C14.08,36.05,8.91,35.78,5.81,32.68Zm26,0c-3.11,3.11-8.28,3.38-11,3.28l6.8-6.8a1,1,0,0,0,0-1.42,1,1,0,0,0-1.41,0l-6.41,6.42V32.53c.17-2.73.9-6.24,3.23-8.57a13.56,13.56,0,0,1,9.64-3.82,16,16,0,0,1,2.43.19.35.35,0,0,1,.28.29A14,14,0,0,1,31.85,32.67Z"></path></g></g></svg>