<svg xmlns="http://www.w3.org/2000/svg" viewBox="0 0 49.02 55.13"><defs><style>.cls-1{fill:#937162;}</style></defs><g id="Layer_2" data-name="Layer 2"><g id="icons"><path class="cls-1" d="M47.94,1.55A3.47,3.47,0,0,0,46.41.38c-1.23-.47-4.36-1.17-7,2.59L36.11,8.35A15.67,15.67,0,0,0,7.42,11.58a.77.77,0,0,0,0,.15A15.6,15.6,0,0,0,1,30.39a2.67,2.67,0,0,0,1.72,4.72H3.5L5.55,54.23a1,1,0,0,0,1,.9H37.62a1,1,0,0,0,1-.9l2.05-19.12h.82a2.68,2.68,0,0,0,1.73-4.72,16,16,0,0,0,.22-2.51,15.64,15.64,0,0,0-4.09-10.53l8-8.39C50.21,5.46,48.71,2.61,47.94,1.55Zm-25.48.81A13.78,13.78,0,0,1,36.07,14.61a15.61,15.61,0,0,0-8.32-2.42,16.06,16.06,0,0,0-2.71.25s0,0-.05,0a15.61,15.61,0,0,0-15-2A13.76,13.76,0,0,1,22.46,2.36Zm-6.77,9a13.58,13.58,0,0,1,6.76,1.79,15.71,15.71,0,0,0-10.4,14.75,14.29,14.29,0,0,0,.13,1.86H2.85a13.66,13.66,0,0,1,12.84-18.4Zm21,41.79H7.45l-1.94-18H38.66Zm4.76-20H2.68A.68.68,0,0,1,2,32.43a.69.69,0,0,1,.68-.69H41.49a.68.68,0,0,1,.68.69A.67.67,0,0,1,41.49,33.11Zm-.19-3.37H14.19a14.28,14.28,0,0,1-.14-1.86,13.7,13.7,0,0,1,27.39,0A14.28,14.28,0,0,1,41.3,29.74ZM45.81,7.63c-3.61,3.82-6,6.37-7.67,8.09a.43.43,0,0,1,0-.05,15.18,15.18,0,0,0-1-5.14l3.94-6.46c1.66-2.34,3.43-2.28,4.63-1.82a1.37,1.37,0,0,1,.63.48C47.08,3.77,47.6,5.47,45.81,7.63Z"></path><circle class="cls-1" cx="18.5" cy="26.84" r="0.86"></circle><circle class="cls-1" cx="23.14" cy="24.75" r="0.86"></circle><path class="cls-1" d="M27.78,26a.86.86,0,1,0,.87.86A.86.86,0,0,0,27.78,26Z"></path><circle class="cls-1" cx="32.42" cy="24.75" r="0.86"></circle><circle class="cls-1" cx="37.06" cy="26.84" r="0.86"></circle></g></g></svg>