<svg xmlns="http://www.w3.org/2000/svg" viewBox="0 0 60.22 31.8"><defs><style>.cls-1{fill:#937162;}</style></defs><g id="Layer_2" data-name="Layer 2"><g id="icons"><path class="cls-1" d="M59.83,8.57a4.44,4.44,0,0,0-1.55-2.48c-2.27-1.8-6-1-8-.41,0-.55,0-1.11,0-1.69V3.51A3.71,3.71,0,0,0,46.43,0H11.09A3.71,3.71,0,0,0,7.21,3.51V4c0,12.39,6,18.48,10.18,21.25H2.73A2.74,2.74,0,0,0,.15,27.05,2.6,2.6,0,0,0,1,30,8.62,8.62,0,0,0,6.27,31.8h45A8.62,8.62,0,0,0,56.52,30a2.6,2.6,0,0,0,.85-2.92,2.73,2.73,0,0,0-2.58-1.81H40.13a20.87,20.87,0,0,0,3-2.38C53.51,20.34,59.05,17,60.06,12.59A8,8,0,0,0,59.83,8.57ZM55.27,28.41a6.65,6.65,0,0,1-4,1.39h-45a6.65,6.65,0,0,1-4-1.39.66.66,0,0,1,.48-1.17H21.94a2.85,2.85,0,0,0,.29,0H35.29a2.85,2.85,0,0,0,.29,0H54.79A.66.66,0,0,1,55.27,28.41Zm-19.14-3.3a2,2,0,0,1-.55.13H21.94a2.1,2.1,0,0,1-.55-.13C18.54,24,9.21,19,9.21,4V3.51A1.73,1.73,0,0,1,11.09,2H46.43a1.73,1.73,0,0,1,1.88,1.51V4C48.31,19,39,24,36.13,25.11Zm22-13c-.73,3.16-5,5.85-12.6,8A24.75,24.75,0,0,0,50.1,7.85c1.68-.61,5.27-1.51,6.94-.19a2.49,2.49,0,0,1,.86,1.43A6,6,0,0,1,58.11,12.14Z"></path></g></g></svg>