<svg xmlns="http://www.w3.org/2000/svg" viewBox="0 0 42.09 52.59"><defs><style>.cls-1{fill:#937162;}</style></defs><g id="Layer_2" data-name="Layer 2"><g id="icons"><path class="cls-1" d="M38.25,5.47H37l.07-1.14A4.1,4.1,0,0,0,33,0H9.27A4.1,4.1,0,0,0,5.18,4.33l.07,1.14H3.84a3.84,3.84,0,0,0,0,7.68H5.68L7.12,38.83a1,1,0,0,0,0,.22,1,1,0,0,0,.08.39l.52,9.28a4.1,4.1,0,0,0,4.09,3.87H30.48a4.1,4.1,0,0,0,4.09-3.87l2-35.57h1.69a3.84,3.84,0,1,0,0-7.68ZM7.18,4.22a2.08,2.08,0,0,1,.57-1.56A2.05,2.05,0,0,1,9.27,2H33a2.1,2.1,0,0,1,2.1,2.22L35,5.47H7.25Zm26,33.83H9.07l-.89-16H34.06ZM30.48,50.59H11.76a2.09,2.09,0,0,1-2.09-2l-.48-8.56H33.05l-.48,8.56A2.09,2.09,0,0,1,30.48,50.59Zm3.69-30.5H8.07l-.39-6.94H34.56Zm4.08-8.94H3.84a1.84,1.84,0,1,1,0-3.68H38.25a1.84,1.84,0,0,1,0,3.68Z"></path></g></g></svg>