<svg xmlns="http://www.w3.org/2000/svg" viewBox="0 0 47.8 40.98"><defs><style>.cls-1{fill:#937162;}</style></defs><g id="Layer_2" data-name="Layer 2"><g id="icons"><path class="cls-1" d="M34,5.31A13.68,13.68,0,0,0,23.17,0,13.9,13.9,0,0,0,9.46,12.12C3.61,14.78,0,19.92,0,25.67,0,34.11,7.92,41,17.67,41a19.77,19.77,0,0,0,7.74-1.55A17.6,17.6,0,1,0,34,5.31ZM45.73,24a15.6,15.6,0,0,1-20.1,13.45,1.05,1.05,0,0,0-.7,0A17.58,17.58,0,0,1,17.67,39C9,39,2,33,2,25.67c0-5.1,3.36-9.68,8.78-11.94a1,1,0,0,0,.61-.85A11.88,11.88,0,0,1,23.17,2a11.73,11.73,0,0,1,9.5,4.8,1,1,0,0,0,.6.39A15.6,15.6,0,0,1,45.73,24Z"></path><path class="cls-1" d="M31.14,14.32a9,9,0,1,0-4.92,16.49,8.41,8.41,0,0,0,1.86-.2,9,9,0,0,0,3.06-16.29Zm.94,11.32a7,7,0,0,1-9.66,2,7,7,0,0,1-2-9.65,7,7,0,0,1,5.86-3.16,7,7,0,0,1,5.83,10.78Z"></path><path class="cls-1" d="M27.54,16.52a5.48,5.48,0,0,0-5.88,2.32,1,1,0,0,0,.84,1.55,1,1,0,0,0,.83-.45,3.46,3.46,0,0,1,3.73-1.47,1,1,0,0,0,.48-1.95Z"></path></g></g></svg>