<svg xmlns="http://www.w3.org/2000/svg" xmlns:xlink="http://www.w3.org/1999/xlink" id="Capa_1" x="0px" y="0px" viewBox="0 0 512 512" style="enable-background:new 0 0 512 512;" xml:space="preserve"><style type="text/css">	.st0{fill:#937162;}</style><g>	<g>		<path class="st0" d="M292.2,159.7c-2.9,2.9-2.9,7.7,0,10.6c1.5,1.5,3.4,2.2,5.3,2.2s3.8-0.7,5.3-2.2l8.1-8.1   c2.9-2.9,2.9-7.7,0-10.6c-2.9-2.9-7.7-2.9-10.6,0L292.2,159.7z"></path>		<path class="st0" d="M283.7,136.7H295c4.1,0,7.5-3.4,7.5-7.5s-3.4-7.5-7.5-7.5h-11.4c-4.1,0-7.5,3.4-7.5,7.5   S279.5,136.7,283.7,136.7z"></path>		<path class="st0" d="M111.8,119.9c15.4,13.3,34.5,19.9,53.6,19.9c21.1,0,42.1-8,58-23.9c30.3-30.3,32-79.3,4-111.6   c-2.3-2.6-5.5-4.2-9-4.3c-3.5-0.1-6.8,1.2-9.3,3.7l-22.5,22.5c-2.9,2.9-2.9,7.7,0,10.6c2.9,2.9,7.7,2.9,10.6,0l20.5-20.5   c21.1,26.4,19.1,65-5,89.1c-24.1,24.1-62.7,26.1-89.1,5l48.6-48.6c2.9-2.9,2.9-7.7,0-10.6c-2.9-2.9-7.7-2.9-10.6,0l-50.5,50.5   c-2.4,2.4-3.8,5.8-3.7,9.3S109.2,117.7,111.8,119.9L111.8,119.9z"></path>		<path class="st0" d="M184.6,78.5c-2.9,2.9-2.9,7.7,0,10.6l7.2,7.2c1.5,1.5,3.4,2.2,5.3,2.2s3.8-0.7,5.3-2.2   c2.9-2.9,2.9-7.7,0-10.6l-7.2-7.2C192.3,75.6,187.5,75.6,184.6,78.5L184.6,78.5z"></path>		<path class="st0" d="M165.2,85.7c-4.1,0-7.5,3.4-7.5,7.5v10.2c0,4.1,3.4,7.5,7.5,7.5s7.5-3.4,7.5-7.5V93.2   C172.7,89.1,169.3,85.7,165.2,85.7z"></path>		<path class="st0" d="M200.7,67.2h10.2c4.1,0,7.5-3.4,7.5-7.5s-3.4-7.5-7.5-7.5h-10.2c-4.1,0-7.5,3.4-7.5,7.5   S196.6,67.2,200.7,67.2z"></path>		<path class="st0" d="M443,310h-15.2c-0.3-1.1-0.6-2.3-1-3.4c24.8-5.8,41.3-20.8,41.3-38.5c0-11.9-7.4-22.7-20.4-30.4   c22.4-24.4,25.4-58.7,6.3-77.8c-3.7-3.7-8-6.6-12.6-8.6c-0.3-12-3.7-23.8-9.7-34.1c-2.1-3.6-6.7-4.8-10.3-2.7   c-3.6,2.1-4.8,6.7-2.7,10.3c4.1,6.9,6.6,14.7,7.4,22.7c-3.5-0.3-7.1-0.2-10.8,0.2c-2.7-22.6-22-40.1-45.3-40.1   c-12.9,0-24.6,5.4-32.9,14l-7.6-7.6c10.2-10.6,24.6-17.2,40.4-17.2c9.2,0,18.3,2.3,26.3,6.5c3.7,1.9,8.2,0.5,10.1-3.1   s0.5-8.2-3.1-10.1c-10.2-5.4-21.7-8.3-33.4-8.3c-20,0-38.1,8.3-51,21.6l-34.6-34.6c-2.4-2.4-5.8-3.8-9.2-3.7   c-3.5,0.1-6.7,1.7-9,4.3c-20.9,23.7-27.2,55.5-19.4,84.2c-8.5,2.6-16.2,9.3-22,19.1c-11.2-10.3-24.8-16.9-38.6-18.6   c-10.1-1.3-19.5,0.2-27.6,4c-11.9-8.9-26.7-14.3-42.7-14.3c-39.3,0-71.3,32-71.3,71.3c0,25,12.9,47,32.5,59.8   c-1.9,3.6-3.2,7.5-3.7,11.6c-1.1,8.2,0.8,16.3,5.1,23.5H61.4c-4.8,0-9.4,2-12.7,5.5c-3.3,3.5-5,8.1-4.8,12.9   c2,39.9,15.4,78.2,38.7,110.7c22.8,31.8,53.9,56.5,90,71.4c2.7,1.1,5.5,1.7,8.5,1.7h142.1c3,0,5.8-0.6,8.5-1.7   c36.1-14.9,67.2-39.6,90-71.4c23.3-32.5,36.7-70.7,38.7-110.7c0.2-4.8-1.4-9.4-4.8-12.9C452.4,312,447.8,310,443,310L443,310z    M370.2,122.6c16.2,0,29.5,12.7,30.5,28.7c-7.4,2.7-14.7,6.9-21.4,12.4l-31.4-31.4C353.5,126.3,361.4,122.6,370.2,122.6z    M367.2,182.1c1,2.5,3.2,4.3,5.8,4.7c2.6,0.4,5.3-0.6,7-2.7c1.4-1.8,3-3.5,4.5-5c18.6-18.6,45.1-22.5,59-8.6   c13.9,13.9,10,40.3-8.7,59c-1.5,1.5-3.2,3-4.9,4.4c-2.1,1.7-3.1,4.4-2.7,7s2.2,4.9,4.7,5.8c13,5,21.2,13.1,21.2,21.3   c0,11.8-16.4,22.7-38.1,25.4c-2.5,0.3-4.7,1.8-5.8,4.1s-1,4.9,0.2,7.1c1,1.8,1.9,3.6,2.6,5.4h-2.9l-47.3-47.3l42.6-42.6   c2.9-2.9,2.9-7.7,0-10.6c-2.9-2.9-7.7-2.9-10.6,0l-42.6,42.6l-34.5-34.5c-2.5-2.5-6-3.9-9.5-3.8c-3.5,0.1-6.9,1.7-9.3,4.4   c-6.6,7.5-11.7,15.9-15.3,24.7c-2.7-7.4-4-14.8-3.9-21.6c0.1-5.5,1.3-15.5,8.6-19.6c2.1-1.2,4.6-1.8,7.3-1.8   c4.4,0,9.4,1.5,14.6,4.5c2.2,1.3,4.8,1.3,7.1,0.2c2.2-1.1,3.8-3.3,4.1-5.8c2.7-21.7,13.6-38,25.4-38   C354.1,160.9,362.2,169.1,367.2,182.1L367.2,182.1z M386.3,308.4c-0.9,0.6-1.8,1.1-2.7,1.6h-34.5c-3.1-1.6-6-3.8-8.6-6.3   c-12.4-12.4-14-31.6-4.8-45.7L386.3,308.4z M237.2,271.2c-22.8,0-41.8,16.8-45.1,38.8h-10.8c3.4-27.8,27.2-49.5,55.9-49.5   s52.5,21.6,55.9,49.5h-10.8C278.9,288.1,260,271.2,237.2,271.2z M267,310h-59.7c3.1-13.6,15.3-23.8,29.8-23.8S263.9,296.4,267,310   z M291.2,270.4c1.4-14.4,6.9-28.6,16.7-40.4l17.2,17.2c-13.9,18.6-13.5,44.6,1.1,62.8h-18.1C306.7,294.9,300.6,281.2,291.2,270.4   L291.2,270.4z M275.8,81.4l65,65c-15.5,2.8-28.3,18.4-33.5,40.8c-3.1-1-6.1-1.7-9.1-2c-2.3-0.2-4.6-0.2-6.9,0   c-5.9-16.9-16.4-28.6-28.9-31.9C254.6,129.2,258.9,101.9,275.8,81.4z M157.7,176.9c6.5-6.5,16-9.3,26.8-7.9   c11.5,1.4,22.9,7.3,32.2,16.6c1.5,1.5,3,3.2,4.5,5c1.7,2.1,4.4,3.1,7,2.7c2.6-0.4,4.9-2.2,5.8-4.7c5-13.1,13.1-21.2,21.3-21.2   c8.9,0,17.3,9.3,22,23.2c-8.5,6.2-13.3,17-13.5,30.7c-0.2,10.4,2.3,21.8,7.2,32.9c-10.1-5.4-21.6-8.5-33.8-8.5c-0.1,0-0.2,0-0.2,0   l-29.6-29.6c-2.9-2.9-7.7-2.9-10.6,0c-2.9,2.9-2.9,7.7,0,10.6l21.5,21.5c-23.4,6.4-42,24.5-49.2,47.6c-12.7-4.8-21-12.8-21-21.3   c0-8.2,8.1-16.3,21.2-21.3c2.5-1,4.3-3.2,4.7-5.8s-0.6-5.3-2.7-7c-1.8-1.4-3.4-2.9-4.9-4.4c-9.3-9.3-15.2-20.7-16.6-32.2   C148.4,192.9,151.2,183.4,157.7,176.9L157.7,176.9z M99,240.6c-8.2-5.5-13.6-14.8-13.6-25.4c0-16.9,13.7-30.6,30.6-30.6   c7.1,0,13.7,2.5,18.9,6.6c-0.3,1.9-0.4,3.8-0.5,5.8c-7.7,0.2-15,2.5-21.2,7.2C102.6,212.2,97.6,225.9,99,240.6z M113.9,266.8   c2.4-0.4,4.4-2,5.4-4.1c1-2.2,1-4.7-0.2-6.8c-8.3-15.4-7-32.2,3.2-39.9c3.9-2.9,8.6-4.3,13.6-4.2c2.7,11.6,8.7,22.8,17.5,32.3   c-12.9,7.6-20.4,18.5-20.4,30.4c0,15.3,12.2,28.5,31.4,35.6H97.6c-6.7-5.9-10.4-13.6-9.3-21.5C89.7,277.9,99.8,269.4,113.9,266.8   L113.9,266.8z M59.7,215.1c0-31.1,25.3-56.3,56.3-56.3c11,0,21.3,3.2,30,8.7c-2.5,2.7-4.5,5.6-6.2,8.7c-6.9-4.2-15-6.7-23.7-6.7   c-25.2,0-45.6,20.5-45.6,45.6c0,18.4,10.9,34.2,26.6,41.5c-3.8,1.8-7.3,4-10.3,6.6C70.5,253.3,59.7,235.4,59.7,215.1L59.7,215.1z    M441.7,357H371c-4.1,0-7.5,3.4-7.5,7.5s3.4,7.5,7.5,7.5h66.9c-6.1,20.8-15.6,40.4-28.4,58.2c-21.2,29.5-50.1,52.4-83.5,66.2   c-0.9,0.4-1.8,0.5-2.8,0.5H181.2c-1,0-1.9-0.2-2.8-0.5c-33.5-13.8-62.3-36.7-83.5-66.2c-12.8-17.8-22.3-37.5-28.4-58.2H335   c4.1,0,7.5-3.4,7.5-7.5s-3.4-7.5-7.5-7.5H62.7c-2-9.7-3.3-19.5-3.8-29.5c0-0.8,0.3-1.4,0.7-1.8c0.3-0.3,0.9-0.8,1.8-0.8H443   c0.9,0,1.6,0.5,1.8,0.8c0.3,0.3,0.7,0.9,0.7,1.8C445,337.5,443.7,347.3,441.7,357L441.7,357z"></path>		<path class="st0" d="M327.8,74.2c1.1,0,2.2-0.1,3.3-0.4l49.2-13.2h0c6-1.6,10-7.5,9.2-13.7c-1.6-12-6.9-22.8-15.5-31.3   S354.7,1.7,342.7,0.1c-6.2-0.8-12.1,3.1-13.7,9.2l-13.2,49.2c-1.2,4.4,0,8.9,3.2,12.1C321.5,73,324.6,74.2,327.8,74.2L327.8,74.2z    M342.9,15.3c7.8,1.5,14.9,5.2,20.5,10.9c5.7,5.7,9.4,12.7,10.9,20.5l-42.9,11.5L342.9,15.3z"></path>	</g></g><g>	<path class="st0" d="M252.2,489.7c30.5,0,55-24.3,55.1-54.7c0.1-30.4-24.5-55-54.8-55c-30.4,0-55.1,24.6-55,54.9  C197.5,465.1,222,489.6,252.2,489.7z M254.1,389.4c24.1,0.5,44.4,21.7,43.9,46c-0.5,25.3-21.2,45.5-45.9,45  c-25.7-0.5-45.8-21.1-45.2-46.5C207.4,408.5,228.2,388.9,254.1,389.4z"></path>	<path class="st0" d="M241.9,424.5c7.8,0,15.6,0,23.3,0c0.8,0,1.6-0.1,2.4-0.2l0.7-0.1l-0.3-0.6c-0.6-1.1-1.2-2.3-1.7-3.4  c-0.6-1.1-1.1-2.1-1.8-3.1c-0.6-0.9-2.1-1.3-3.1-1.6c-1.8-0.5-3.4-0.9-5.3-1.4c0.1-1.3,0.3-2.7,0.4-4l0-0.4l-0.4-0.1  c-0.7-0.2-2-0.4-2.6-0.5c-0.5-0.1-1-0.1-1.4,0.2c-0.6,0.4-0.7,1.1-0.8,1.7c-0.1,0.5-0.1,1-0.1,1.4c0,0.5-0.1,1.1-0.1,1.6  c-1.9,0.5-3.5,0.9-5.3,1.4c-1,0.3-2.1,0.7-2.8,1.4c-0.8,0.8-1,1.8-0.9,2.9c0,0.2-0.5,0.8-0.7,0.9c-0.2,0.2-0.4,0.4-0.6,0.6  c-0.5,0.6-1.1,1.2-1.6,1.7l-0.5,0.6l0.7,0.2C240.2,424.1,241,424.5,241.9,424.5z"></path>	<path class="st0" d="M223.7,460.3c0.3,0.2,0.6,0.4,0.6,0.4c0,0,0,0,0,0c0.4,2.3,1.4,4.1,3,5.6c1.8,1.6,4,2.6,6.2,3.4  c3.2,1.2,6.6,2.1,10.3,2.6c2.9,0.4,5.9,0.6,9.2,0.6c0,0,0,0,0,0c1.2,0,2.3,0,3.5-0.1c5.6-0.2,12.9-0.9,19.8-4.2c3-1.5,5-3.4,6-5.7  c1-2.4,1-5.1-0.1-8.2c-0.6-1.8-1.5-3.8-2.8-5.9c-1.1-1.8-2.3-3.6-3.5-5.3c-0.5-0.7-1-1.5-1.5-2.2c-2-2.9-1.3-3.3,0.8-6.2  c0.5-0.7,1.2-1.7,1.4-2.8c0.1-0.8,0-1.6-0.4-2.4c3.1-3.1,3.7-7,1.6-12c-0.2-0.5-0.5-1-0.7-1.5c-0.5-1-0.8-1.9-1-2.9  c-0.1-0.4-0.1-0.8-0.2-1.4c0-0.4,0-0.8,0-1.3c0,0,0,0,0,0c0.6-0.3,1.1-0.7,1.5-1.2c0.4-0.5,0.5-1.2,0.7-1.7l0.2-0.4  c0.1-0.2,0.2-0.4,0.3-0.6c0.3-0.4,0.5-0.6,0.9-0.8l2.9-1.4l-5.1-1.7c0-1.2-0.3-2.2-1-3c-0.8-0.9-2.1-1.4-3.6-1.4  c-0.5,0-1.1,0.1-1.6,0.2c-0.8,0.2-1.9,0.4-2.9,0.4c-0.5,0-0.9,0-1.3-0.1c-4.4-0.9-8.9-1.3-13.3-1.3c-4.5,0-9,0.5-13.4,1.3  c-0.3,0.1-0.6,0.1-1,0.1c-0.8,0-1.7-0.2-2.5-0.4c-0.6-0.2-1.3-0.3-1.9-0.3c-1.2,0-2.2,0.4-3.1,1c-1.1,0.9-1.7,2.1-1.9,3.6l-2.9,1.2  l0.8,1.4c0.2,0.4,0.4,0.7,0.6,1.1l0.2,0.4c0.2,0.5,0.5,1.1,0.8,1.6c0.3,0.6,0.9,1.4,1.8,1.7c0.8,0.3,0.9,0.5,0.9,0.6  c0.1,0.3,0,0.7-0.1,0.9l-0.1,0.5c-0.3,1.6-0.6,2.9-1.3,4.5c-1.5,3.2-2,5.7-1.6,8.1c0.3,1.8,0.8,3.6,2.3,5c-0.3,0.8,0,1.5,0.2,2.3  c0.2,0.9,0.6,1.8,1,2.5c0,0,0.7,1.3,0.9,1.6c0.7,1.3,0.7,1.8,0.7,2c-0.7,2.6-2.4,4.8-4.2,6.7c-1.8-6.2-4-12.4-11.5-14.5l-0.8-0.2  l-2.5,3.1l-1.5,2.4l1.7,0.6c1.5,0.5,2.4,1.2,3,2.3c0.7,1.4,0.7,3.3,0.5,4.9c-0.2,2.1-0.1,3.7,0,5.4c0,0.9,0.1,1.9,0.1,2.9  C219,455.5,220.7,458.4,223.7,460.3z M234.3,406.4l1.4,0c0.4,0,0.8,0,1.2,0c0.6,0,1.1-0.1,1.7-0.2l0.2,0c0.6-0.1,1.2-0.2,1.8-0.2  c0.2,0,0.4,0,0.7,0.1c4.3,0.9,8.1,1.1,12.5,1.1c4.3,0,8.7-0.4,13.1-1.3c0.8-0.1,1.6-0.2,2.5-0.2c1.3,0,2.8,0.2,4.4,0.5  c0,0.1-0.1,0.5-0.3,0.7c-1.5,1.4-2.4,2.9-2.6,4.7c-0.3,2,0.3,4.1,0.9,5.7c0.1,0.4,0.3,0.8,0.4,1.2c0.5,1.2,0.9,2.5,1.1,3.7  c0.2,1.5,0.1,2.8-0.3,3.7c-0.8,1.9-1.9,3.8-2.9,5.6c0-0.8-0.1-1.6-0.2-2.3c-0.1-1-1.3-2.9-2.7-2.9c-4.3-0.1-8.7-0.1-13-0.1  c-4.6,0-9.2,0-13.9,0.1c-1.5,0-2.4,2.2-2.6,3c-0.1,0.7-0.1,1.4-0.2,2.1c-1-1.8-1.6-3.5-2.3-5.4c-0.4-1-0.4-2.4-0.1-4.2  c0.2-1.2,0.6-2.3,1.1-3.5c0.3-0.8,0.6-1.7,0.9-2.6c0.9-3.4,0.3-6.2-2-8.3C234.4,406.9,234.3,406.6,234.3,406.4  C234.3,406.4,234.3,406.4,234.3,406.4z"></path></g></svg>