<svg xmlns="http://www.w3.org/2000/svg" xmlns:xlink="http://www.w3.org/1999/xlink" id="Layer_1" x="0px" y="0px" viewBox="0 0 512 512" style="enable-background:new 0 0 512 512;" xml:space="preserve"><style type="text/css">	.st0{fill:#8E7264;}</style><path class="st0" d="M500.6,338c-0.3-9.1-6.4-16.7-14.6-19.3l-1-31c8.5-4.1,13.8-13.7,11.2-23.5c-17-63.5-113.9-83.2-179.6-81.1 c-32.2,1-68.7,7.6-99.2,19.7c-1.5,0.6-2.7,1.7-3.5,3c-1,1.8-1.3,4-0.5,6.1c0.4,1,0.9,1.8,1.6,2.4c1.9,1.9,4.8,2.5,7.4,1.5 c1.2-0.5,2.4-0.9,3.6-1.4l10,24.9c4.3,10.8,16.6,16,27.3,11.7c10.7-4.3,16-16.5,11.7-27.3l-8.3-20.7c7.9-1.6,15.9-2.9,24-3.9 L306,237c4.3,10.8,16.6,16,27.3,11.7c10.7-4.3,16-16.5,11.7-27.3l-9.8-24.4c8.8,0.3,17.6,0.9,26.3,1.9l14.4,35.8 c4.3,10.8,16.5,16,27.3,11.7c10.7-4.3,16-16.5,11.7-27.3l-4.1-10.1c27.4,8.6,63.2,25.9,72,58.7c1.1,4-2.6,7.9-6.7,8.1l-251.4,8.1 l-12.6,0.4l1.9,13.9l5.6-0.2l8,7.5l20.8,19.5l-18.1,0.6l-12.6,0.4l1.9,13.9l12.6-0.4l30.6-1l26.7,25.1c1.4,1.3,3.2,2,5,1.9 c1.8-0.1,3.6-0.8,4.9-2.2l22.3-23.7l23.8,22.3c1.4,1.3,3.2,1.9,5,1.9c1.8-0.1,3.5-0.8,4.9-2.2l25.1-26.7l99.1-3.2 c3.9-0.1,7.1,2.9,7.2,6.8c0.6,19.3-14.5,35.4-33.8,36.1l-215,6.9l-12.6,0.4l1.9,13.9l12.6-0.4l213.6-6.9 C480.3,387.6,501.5,364.9,500.6,338z M258.2,237.9c-3.6,1.4-7.7-0.3-9.1-3.9l-9.7-24.2c4.4-1.4,8.9-2.6,13.5-3.8l9.1,22.8 C263.5,232.4,261.7,236.5,258.2,237.9z M328,235.7c-3.6,1.4-7.7-0.3-9.1-3.9l-13.7-34.1c4-0.3,7.9-0.5,11.8-0.6c1,0,2,0,3-0.1 l11.9,29.6C333.3,230.1,331.6,234.2,328,235.7z M397.9,233.4c-3.6,1.4-7.7-0.3-9.1-3.9l-11.4-28.4c5.6,0.9,11,2,16.4,3.3l8,19.9 C403.2,227.9,401.5,232,397.9,233.4z M294,348.7l-54.7-51.3l106-3.4L294,348.7z M349.8,346.9l-18.6-17.5l33.8-36.1l36.1-1.2 L349.8,346.9z M393.8,320.4l27.1-28.9l50.2-1.6l0.9,28L393.8,320.4z"></path><path d="M90,155c0-5.5-4.5-10-10-10s-10,4.5-10,10s4.5,10,10,10S90,160.5,90,155z"></path><g id="Layer_22">	<path class="st0" d="M242.8,417.9l-3.1-22.5l-1.9-13.9l-5.7-41.8l-1.9-13.9l-2.7-20.1l-3-21.7l-9.5-69.7l-1.2-8.5l-13.5-99  c-0.2-1.2-0.7-2.3-1.5-3.3c-12.1-14.3-26.7-26.2-43-35.4c-1.5-2.4-3.4-4.4-5.7-6c-4.8-3.2-10.8-4.4-16.5-3.3  C105.5,50,74.8,55,50.8,72.3c-7,0.2-13.4,3.6-17.6,9.2c-2.1,3.1-3.3,6.6-3.6,10.3C18.2,105.6,9.2,121.3,2.9,138  c-0.4,1.1-0.5,2.4-0.3,3.6l26.7,123.8l0,0.1c-2.8,25.5,2.8,51.2,15.8,73.2l0,0.2l23.7,109.8c0.6,2.6,2.7,4.6,5.4,4.9  c56.7,7.3,114.4-2.9,165.2-29.2C241.8,423.1,243.2,420.5,242.8,417.9z M159.4,84.7c5,3.4,9.8,7.2,14.3,11.2  c-3.4-1.4-7.1-2-10.8-1.9c-1.3-1.6-2.8-3-4.4-4.2C159,88.2,159.3,86.5,159.4,84.7z M122,80.4c5.9-8.4,15.5-12.1,21.1-8.2  c3.7,3.2,5.1,8.3,3.7,13c-2.5-0.3-5-0.3-7.4,0.2c-2.5,0.4-4.8,1.2-7,2.4c-3.5-2.5-7.6-4-11.9-4.5C120.8,82.3,121.4,81.4,122,80.4z   M116.3,67.9c-1.7,1.7-3.2,3.5-4.6,5.4c-0.9,1.3-1.6,2.6-2.3,4c-10.4-5.9-23.6-3.6-31.3,5.6c-1.5-1.4-3.1-2.8-4.7-4  c-1.5-1-3-1.9-4.6-2.8C83.4,68.7,100,65.8,116.3,67.9z M43.5,88.8c2.1-2.6,5.3-4.1,8.7-4c5,0,9.9,1.6,13.9,4.6  c1.3,0.9,2.4,1.9,3.5,3c-3.8,1.9-7.1,4.7-9.5,8.2c-5.1-0.7-10.4,0.3-14.9,2.8C41.8,99.3,41.1,93.5,43.5,88.8z M39.4,128.6  c2.8-0.4,5-2.5,5.4-5.2c1.2-6.9,7.7-11.5,14.6-10.3c0.6,0.1,1.2,0.3,1.9,0.5c3.2,1.1,6.7-0.4,7.9-3.5c1.6-3.9,5-6.8,9.2-7.6l1-0.1  c2.8-0.4,5-2.5,5.4-5.2c1-6.8,7.4-11.5,14.2-10.4c3.8,0.6,7.2,2.9,9,6.3c1.3,2.4,4.2,3.7,6.9,3c0.3,0,0.5-0.1,0.8-0.2  c4.2-0.8,8.5,0.7,11.4,3.9c2.3,2.5,6.1,2.7,8.7,0.6c5.4-4.3,13.4-3.5,17.7,2c0.4,0.5,0.8,1,1.1,1.6c1.4,2.4,4.2,3.7,6.9,3.1  c0.3-0.1,0.5-0.1,0.8-0.2c5.3-0.9,10.5,1.6,13.1,6.3l-9,6.3c-4.3-3.6-9.9-5.2-15.4-4.2l-19.7,3.5c-3.9-6.9-11.8-10.6-19.6-9.3  L87,113.7c-7.8,1.4-13.9,7.6-15.2,15.4l-19.7,3.5c-5.8,1-10.7,4.7-13.4,10l-10.3-3.1c0.6-5.4,4.6-9.9,10-10.9L39.4,128.6z   M154.8,127.5l-18.5,13l-1.7-9.7l18.5-3.3C153.7,127.4,154.3,127.4,154.8,127.5z M125,148.4l-19.8,13.9l-16.8-5l-4.2-24  c-0.6-3.4,1.7-6.7,5.1-7.3l24.7-4.4c3.4-0.6,6.7,1.7,7.3,5.1L125,148.4z M74.9,153.4l-23.4-7c0.8-0.7,1.8-1.2,2.8-1.4l18.5-3.3  L74.9,153.4z M33.2,107.6c0.8,1.5,1.8,3,2.9,4.3c-1,1.6-1.8,3.2-2.5,5c-3.5,1.1-6.8,3-9.5,5.5C26.8,117.3,29.8,112.4,33.2,107.6z   M17.2,149.3L92,171.5l-12.5,8.7c-19.9,14-35.1,33.9-43.4,56.8L17.2,149.3z M63,361.7c15,15.3,33.8,26.4,54.5,31.9l11.7,3.1  L79,436.2L63,361.7z M91.4,442.4l52.9-41.7l73.9,19.6C178.4,438,134.8,445.6,91.4,442.4z M120.7,381.5  c-57.1-15.2-91.1-73.7-75.9-130.8c6.5-24.4,21.3-45.6,41.9-60.1l102.6-72l22.6,165.8l1.9,13.9l3.8,27.9l1.9,13.9l5.7,41.8l1.9,13.9  l2,14.5L120.7,381.5z"></path></g></svg>