<svg xmlns="http://www.w3.org/2000/svg" xmlns:xlink="http://www.w3.org/1999/xlink" id="Layer_1" x="0px" y="0px" viewBox="0 0 82.4 82.4" style="enable-background:new 0 0 82.4 82.4;" xml:space="preserve"><style type="text/css">	.st0{fill:#937162;}	.st1{fill-rule:evenodd;clip-rule:evenodd;fill:#937162;}</style><path class="st0" d="M49.5,54.6c1,0,1.9,0.2,2.8,0.4c-0.9,3-2.9,5.2-4.4,6c-1.6,0.9-3.8,0.9-5.5-0.3c-0.1-2.2,0.9-4,2.5-5 C46.2,54.9,47.9,54.6,49.5,54.6z M32.9,54.6c1.6,0,3.3,0.3,4.6,1.2c1.6,1,2.6,2.7,2.5,5c-1.7,1.2-3.9,1.2-5.5,0.3 c-1.5-0.8-3.5-3.1-4.4-6C31,54.8,32,54.6,32.9,54.6z M32.9,52.4c-1.4,0-2.9,0.2-4.4,0.7c-0.6,0.2-1,0.8-0.8,1.4 c1.1,4.3,3.2,7.2,5.9,8.6c2.1,1.1,4.4,1.1,6.5,0.2v7.2c0,1.5,2.3,1.5,2.3,0v-7.2c2.1,0.9,4.5,0.9,6.5-0.2c2.6-1.4,4.7-4.3,5.9-8.6 c0.2-0.6-0.2-1.2-0.8-1.4c-2.1-0.6-4-0.8-5.8-0.6c-1.7,0.2-3.3,0.7-4.5,1.5c-1,0.7-1.8,1.5-2.4,2.5c-0.6-1-1.4-1.9-2.4-2.5 c-1.2-0.8-2.8-1.3-4.5-1.5C33.8,52.4,33.4,52.4,32.9,52.4z"></path><path class="st0" d="M49.5,41.8c1,0,1.9,0.2,2.8,0.4c-0.9,3-2.9,5.2-4.4,6c-1.6,0.9-3.8,0.9-5.5-0.3c-0.1-2.2,0.9-4,2.5-5 C46.2,42.1,47.9,41.8,49.5,41.8z M32.9,41.8c1.6,0,3.3,0.3,4.6,1.2c1.6,1,2.6,2.7,2.5,5c-1.7,1.2-3.9,1.2-5.5,0.3 c-1.5-0.8-3.5-3.1-4.4-6C31,42,32,41.8,32.9,41.8z M32.9,39.6c-1.4,0-2.9,0.2-4.4,0.7c-0.6,0.2-1,0.8-0.8,1.4 c1.1,4.3,3.2,7.2,5.9,8.6c2.4,1.3,5.3,1.1,7.7-0.4c2.4,1.5,5.2,1.7,7.6,0.4c2.6-1.4,4.7-4.3,5.9-8.6c0.2-0.6-0.2-1.2-0.8-1.4 c-2.1-0.6-4-0.8-5.8-0.6c-1.7,0.2-3.3,0.7-4.5,1.5c-1,0.7-1.8,1.5-2.4,2.5c-0.6-1-1.4-1.9-2.4-2.5c-1.2-0.8-2.8-1.3-4.5-1.5 C33.8,39.6,33.4,39.6,32.9,39.6z"></path><path class="st0" d="M49.5,29.5c1,0,1.9,0.2,2.8,0.4c-0.9,3-2.9,5.2-4.4,6c-1.6,0.9-3.8,0.9-5.5-0.3c-0.1-2.2,0.9-4,2.5-5 C46.2,29.8,47.9,29.5,49.5,29.5z M32.9,29.5c1.6,0,3.3,0.3,4.6,1.2c1.6,1,2.6,2.7,2.5,5c-1.7,1.2-3.9,1.2-5.5,0.3 c-1.5-0.8-3.5-3.1-4.4-6C31,29.7,32,29.5,32.9,29.5z M32.9,27.3c-1.4,0-2.9,0.2-4.4,0.7c-0.6,0.2-1,0.8-0.8,1.4 c1.1,4.3,3.2,7.2,5.9,8.6c2.4,1.3,5.3,1.1,7.7-0.4c2.4,1.5,5.2,1.7,7.6,0.4c2.6-1.4,4.7-4.3,5.9-8.6c0.2-0.6-0.2-1.2-0.8-1.4 c-2.1-0.6-4-0.8-5.8-0.6c-1.7,0.2-3.3,0.7-4.5,1.5c-1,0.7-1.8,1.5-2.4,2.5c-0.6-1-1.4-1.9-2.4-2.5c-1.2-0.8-2.8-1.3-4.5-1.5 C33.8,27.3,33.4,27.3,32.9,27.3z"></path><path class="st0" d="M41.2,13.6c2.1,2.5,3.2,4.9,3.1,6.8c-0.1,2-1.2,3.6-3.1,4.6c-1.9-1-3-2.6-3.1-4.6C38,18.4,39.1,16.1,41.2,13.6z  M41.2,10.8c-0.3,0-0.6,0.1-0.8,0.3c-3.1,3.1-4.6,6.4-4.4,9.4c0.1,3,1.9,5.5,4.8,6.8c0.3,0.1,0.6,0.1,0.9,0c2.8-1.3,4.6-3.8,4.8-6.8 c0.1-3-1.3-6.3-4.4-9.4C41.8,10.9,41.5,10.8,41.2,10.8z"></path><path class="st1" d="M41.2,2.3c10.3,0,19.7,4,26.7,10.6L55.8,25c-0.5,0.4-0.5,1.2,0,1.6c0.4,0.4,1.2,0.4,1.6,0l12.2-12.2 c6.6,7,10.6,16.4,10.6,26.7c0,21.5-17.4,38.9-38.9,38.9c-10.3,0-19.7-4-26.7-10.6l11.3-11.3c0.7-0.7,0.2-2-0.8-1.9 c-0.3,0-0.6,0.1-0.8,0.3L12.9,67.9c-6.6-7-10.6-16.4-10.6-26.7C2.3,19.7,19.7,2.3,41.2,2.3z M41.2,0C18.5,0,0,18.5,0,41.2 s18.5,41.2,41.2,41.2c22.7,0,41.2-18.5,41.2-41.2S63.9,0,41.2,0z"></path></svg>