<?xml version="1.0" encoding="utf-8"?>
<!-- Generator: Adobe Illustrator 26.0.3, SVG Export Plug-In . SVG Version: 6.00 Build 0)  -->
<svg version="1.1" id="Layer_1" xmlns="http://www.w3.org/2000/svg" xmlns:xlink="http://www.w3.org/1999/xlink" x="0px" y="0px"
	 viewBox="0 0 37.7 55.5" style="enable-background:new 0 0 37.7 55.5;" xml:space="preserve">
<style type="text/css">
	.st0{fill:#937162;}
</style>
<g>
	<path class="st0" d="M33.4,13.6c0-0.2,0-0.5-0.2-0.7l-3.6-5.1c0,0,0,0-0.1-0.1v-3c0-2.1-1.7-3.9-3.9-3.9H13.5
		c-2.1,0-3.9,1.7-3.9,3.9v3.1c0,0-0.1,0.1-0.1,0.2l-5,8c-0.1,0.2-0.2,0.4-0.1,0.6c0,0,0,0.1,0,0.1v36.8c0,0.5,0.4,1,1,1h21.3
		c0.2,0,0.4,0,0.5-0.1l0,0l5.8-3.4c0.3-0.2,0.5-0.5,0.5-0.8L33.4,13.6C33.4,13.7,33.4,13.6,33.4,13.6z M29.2,10.7l1.8,2.5l-2.9,1.4
		L29.2,10.7z M11.6,4.8c0-1.1,0.9-1.9,1.9-1.9h12.1c1.1,0,1.9,0.9,1.9,1.9v2.4h-16V4.8z M25.6,52.7H6.2V17.8h19.4V52.7z M25.8,15.9
		H6.9l4.3-6.8h16.6v0L25.8,15.9z M31.4,49.6l-3.9,2.3V17.1l3.9-1.8V49.6z"/>
	<path class="st0" d="M28.3,50.6C28.3,50.6,28.3,50.6,28.3,50.6l2.5-1.5c0,0,0.1-0.1,0-0.2c0,0-0.1-0.1-0.2,0l-2.4,1.5
		C28.2,50.4,28.2,50.5,28.3,50.6C28.2,50.6,28.2,50.6,28.3,50.6z"/>
	<path class="st0" d="M28.3,49.9C28.3,49.9,28.3,49.9,28.3,49.9l2.5-1.5c0,0,0.1-0.1,0-0.2c0,0-0.1-0.1-0.2,0l-2.4,1.5
		C28.2,49.7,28.2,49.7,28.3,49.9C28.2,49.9,28.2,49.9,28.3,49.9z"/>
	<path class="st0" d="M28.3,49.3C28.3,49.3,28.3,49.3,28.3,49.3l2.5-1.5c0,0,0.1-0.1,0-0.2c0,0-0.1-0.1-0.2,0L28.2,49
		C28.2,49.1,28.2,49.1,28.3,49.3C28.2,49.3,28.2,49.3,28.3,49.3z"/>
	<path class="st0" d="M28.3,48.7C28.3,48.7,28.3,48.7,28.3,48.7l2.5-1.5c0,0,0.1-0.1,0-0.2c0,0-0.1-0.1-0.2,0l-2.4,1.5
		C28.2,48.5,28.2,48.5,28.3,48.7C28.2,48.7,28.2,48.7,28.3,48.7z"/>
	<path class="st0" d="M28.3,48.1C28.3,48.1,28.3,48.1,28.3,48.1l2.5-1.5c0,0,0.1-0.1,0-0.2c0,0-0.1-0.1-0.2,0l-2.4,1.5
		C28.2,47.9,28.2,47.9,28.3,48.1C28.2,48.1,28.2,48.1,28.3,48.1z"/>
	<path class="st0" d="M28.3,45C28.3,45,28.3,45,28.3,45l2.5-1.5c0,0,0.1-0.1,0-0.2c0,0-0.1-0.1-0.2,0l-2.4,1.5
		C28.2,44.8,28.2,44.9,28.3,45C28.2,45,28.2,45,28.3,45z"/>
	<path class="st0" d="M28.3,45.8C28.3,45.8,28.3,45.8,28.3,45.8l2.5-1.5c0,0,0.1-0.1,0-0.2c0,0-0.1-0.1-0.2,0l-2.4,1.5
		C28.2,45.6,28.2,45.6,28.3,45.8C28.2,45.8,28.2,45.8,28.3,45.8z"/>
	<path class="st0" d="M28.3,46.4C28.3,46.4,28.3,46.4,28.3,46.4l2.5-1.5c0,0,0.1-0.1,0-0.2c0,0-0.1-0.1-0.2,0l-2.4,1.5
		C28.2,46.2,28.2,46.2,28.3,46.4C28.2,46.4,28.2,46.4,28.3,46.4z"/>
	<path class="st0" d="M28.3,47C28.3,47,28.3,47,28.3,47l2.5-1.5c0,0,0.1-0.1,0-0.2c0,0-0.1-0.1-0.2,0l-2.4,1.5
		C28.2,46.8,28.2,46.8,28.3,47C28.2,47,28.2,47,28.3,47z"/>
	<path class="st0" d="M28.3,47.6C28.3,47.6,28.3,47.6,28.3,47.6l2.5-1.5c0,0,0.1-0.1,0-0.2c0,0-0.1-0.1-0.2,0l-2.4,1.5
		C28.2,47.4,28.2,47.4,28.3,47.6C28.2,47.6,28.2,47.6,28.3,47.6z"/>
	<path class="st0" d="M15.9,37.2c2.1,0,3.9-1.7,3.9-3.9s-3.9-5.8-3.9-5.8s-3.9,3.7-3.9,5.8S13.8,37.2,15.9,37.2z"/>
	<path class="st0" d="M17.6,9.6c-1.6,0-2.9,0.9-2.9,1.9v1.9c0.1,1,1.4,1.9,2.9,1.9c1.5,0,2.8-1,2.9-1.9v-1.9
		C20.5,10.5,19.2,9.6,17.6,9.6z M17.6,10.6c1.2,0,1.9,0.6,1.9,1c0,0.4-0.8,1-1.9,1c-1.2,0-1.9-0.6-1.9-1
		C15.7,11.1,16.4,10.6,17.6,10.6z M16.4,14.1c-0.4-0.2-0.7-0.5-0.7-0.8V13c0.2,0,0.5,0.2,0.7,0.3V14.1z M18.4,13.4v0.9
		c-0.1,0-0.3,0.1-0.5,0.1v-1h-0.2h-0.2v1c-0.2,0-0.3,0-0.5-0.1v-0.9l0,0c0.2,0,0.5,0.1,0.7,0.1S18.1,13.4,18.4,13.4L18.4,13.4z
		 M18.8,14.1v-0.8c0.3-0.1,0.5-0.3,0.7-0.3v0.4C19.5,13.6,19.3,13.9,18.8,14.1z"/>
</g>
</svg>
