<?xml version="1.0" encoding="utf-8"?>
<!-- Generator: Adobe Illustrator 25.3.1, SVG Export Plug-In . SVG Version: 6.00 Build 0)  -->
<svg version="1.1" id="Layer_1" xmlns="http://www.w3.org/2000/svg" xmlns:xlink="http://www.w3.org/1999/xlink" x="0px" y="0px"
	 viewBox="0 0 629.3 129.6" style="enable-background:new 0 0 629.3 129.6;" xml:space="preserve">
<style type="text/css">
	.st0{fill:#000000;}
</style>
<g>
	<g>
		<path class="st0" d="M380.9,105.8c3.8-13.8,7.6-27.5,11.5-41.3c1.8-6.5,3.6-13,5.4-19.6c0.4-1.4,0.9-2,2.4-1.9
			c4.6,0.2,9.2,0.1,14,0.1c-1.5,5-3,9.7-4.4,14.5c-6.9,22.6-13.9,45.2-20.8,67.9c-0.5,1.8-1.2,2.4-3.2,2.4
			c-4.4-0.2-8.7-0.1-13.3-0.2c-5.6-20.2-11.3-40.3-17.1-61c-2.8,8.9-5.5,17.2-8.1,25.5c-3.6,11.1-7.2,22.3-10.7,33.4
			c-0.4,1.4-1,1.9-2.5,1.8c-3.8-0.1-7.6-0.2-11.4-0.1c-1.5,0-2-0.5-2.4-1.9c-6.6-22.4-13.2-44.9-19.8-67.3
			c-1.5-5.2-3.1-10.4-4.7-15.9c4.1,0,8,0.1,11.8,0.1c4.9,0,4.9,0,6.1,4.7c5.1,18.9,10.1,37.8,15.2,56.7c0.1,0.5,0.3,1,0.6,2
			c2.2-6.9,4.2-13.4,6.3-19.9c4.4-13.8,8.7-27.7,13-41.5c0.4-1.4,1.1-1.8,2.5-1.8c3.5,0.1,6.9,0.2,10.4,0.1c1.4,0,2,0.4,2.3,1.7
			c5.2,19.7,10.5,39.5,15.7,59.2c0.2,0.7,0.4,1.4,0.6,2.1C380.6,105.9,380.7,105.9,380.9,105.8z"/>
		<path class="st0" d="M91.7,125.6c-5.4,0-10.6-0.1-15.8-0.1c0.3-41.4,0.6-82.6,0.9-124c5.3,0,10.4,0.1,15.8,0.1
			c-0.1,16.5-0.2,33-0.4,49.9c0.7-0.8,1.1-1.2,1.5-1.6c10.9-13.1,29.5-12.9,39.8-7.2c7.5,4.2,11,11.1,12.5,19.2
			c0.6,3.4,1,6.9,1,10.3c0,17.4-0.2,34.7-0.3,52.1c0,0.5-0.1,1-0.1,1.6c-5.2,0-10.4-0.1-15.8-0.1c0-0.9,0-1.7,0-2.5
			c0.1-15.8,0.3-31.6,0.3-47.4c0-3.4-0.4-6.9-1.3-10.3c-2.4-9.6-10-14.3-19.7-12.5c-8.9,1.6-15.9,9.1-17.4,18.8
			c-0.3,2-0.5,4.1-0.5,6.1c-0.1,15-0.2,29.9-0.3,44.9C91.7,123.7,91.7,124.6,91.7,125.6z"/>
		<path class="st0" d="M463.6,128.3c0-3.1,0-6.1,0.1-9.7c-0.9,1-1.5,1.5-2,2.1c-6.5,7.2-14.7,9.9-24.2,9.4c-3.3-0.2-6.6-0.7-9.7-1.8
			c-9.2-3.3-14.5-10-15.5-19.7c-1-9.4,1.1-17.9,8.7-24.2c4.8-4,10.5-6,16.6-6.9c7.9-1.2,15.9-2.2,23.9-3.3c0.8-0.1,1.5-0.3,2.2-0.4
			c0.4-12.9-6-18.5-15.3-18.4c-5,0.1-9.9,0.6-14.4,2.8c-4,1.9-7.6,4.5-11.4,6.8c-0.7,0.4-1.3,1-2.3,1.9c0-4.6,0.4-8.8,0-12.8
			c-0.3-3.7,1.2-5.4,4.3-6.9c10.5-5.1,21.5-6.9,32.9-4.9c12.3,2.1,19.8,9.9,21.6,22.3c0.5,3.1,0.7,6.2,0.7,9.3
			c-0.1,17.4-0.2,34.7-0.3,52.1c0,0.8,0,1.7,0,2.5C474,128.4,468.9,128.3,463.6,128.3z M463.7,87.1c-5.4,0.7-10.6,1.2-15.7,2.1
			c-4.3,0.7-8.6,1.5-12.7,3c-6.4,2.3-6.9,6.7-7,12s3.1,9.7,8.1,11.2c8,2.4,15.2,0.8,21.2-5.2C463.8,103.8,464.2,95.7,463.7,87.1z"/>
		<path class="st0" d="M583.6,129.2c-5.2,0-10.4-0.1-15.8-0.1c0-3.1,0-6.1,0.1-9.7c-1.1,1.2-1.7,1.9-2.3,2.6
			c-6.4,6.9-14.5,9.4-23.7,9c-5.5-0.3-10.8-1.4-15.4-4.6c-7.8-5.5-10.7-13.3-10-22.5c1.1-14.1,8.7-22.4,23.3-25.2
			c8.5-1.6,17.2-2.5,25.7-3.7c0.8-0.1,1.6-0.3,2.7-0.4c-0.1-4.7-0.7-9.2-3.5-13.1c-2.4-3.4-6-4.9-10-5.1
			c-10.5-0.7-19.7,2.8-27.7,9.5c-0.6,0.5-1.2,1-2.3,1.9c0-4.4,0.4-8.3,0-12.1c-0.5-4.4,1.5-6.4,5.2-8c11.9-5.3,24.1-7,36.7-3.3
			c9.1,2.7,14.4,9.4,16.4,18.6c0.8,3.6,1.2,7.4,1.2,11.1c0,17.8-0.2,35.6-0.3,53.4C583.8,127.8,583.7,128.5,583.6,129.2z M568,87.9
			c-3.7,0.5-7.2,0.8-10.8,1.4c-4.9,0.7-9.8,1.3-14.5,2.6c-2.7,0.7-5.7,2.2-7.5,4.3c-5.7,6.6-2.4,17.6,6,20.1
			c7.3,2.2,14.1,0.8,19.9-4.4C568,105.3,568.6,96.9,568,87.9z"/>
		<path class="st0" d="M162.5,64.9c0-5.8,0-11.1,0.2-16.4c0-0.6,0.9-1.4,1.5-1.8c9.9-5.8,20.6-7.9,31.9-7c6.7,0.6,12.9,2.5,17.8,7.3
			c4.8,4.7,6.9,10.7,7.7,17.3c0.3,2.6,0.4,5.2,0.4,7.8c-0.1,17.4-0.2,34.9-0.4,52.3c0,0.6-0.1,1.2-0.1,2c-5.2,0-10.3-0.1-15.7-0.1
			c0-3.1,0-6.1,0.1-9.8c-1.2,1.3-1.9,2.1-2.6,2.9c-6.4,6.8-14.5,9.2-23.6,8.7c-4.7-0.2-9.3-1.1-13.4-3.5
			c-9.4-5.4-12.6-13.8-11.9-24.2c0.8-12.6,8.2-21.2,21.7-24.2c7.1-1.6,14.3-2.3,21.5-3.3c2.8-0.4,5.6-0.8,8.3-1.1
			c0.6-10.4-4-17.3-11.7-18.1c-3.6-0.4-7.3-0.1-10.9,0.4c-6.6,1-12.3,4-17.4,8.1C164.8,63,163.9,63.8,162.5,64.9z M205.9,85.5
			c-0.7,0-1.3-0.1-1.9,0c-4.6,0.6-9.2,1.1-13.8,1.9c-4.2,0.7-8.5,1.5-12.5,2.9c-5.6,2-7.5,5.9-7.2,12.9c0.2,4.7,3.4,8.9,8.3,10.4
			c6.8,2,13.3,1.1,18.9-3.4C205.7,103.7,206.5,94.8,205.9,85.5z"/>
		<path class="st0" d="M65.2,105.4c0,4.9,0,9.7-0.2,14.5c0,0.7-0.8,1.6-1.4,2c-7.3,4.2-15.3,5.5-23.6,5.3
			c-9.2-0.3-17.6-2.8-24.8-8.9c-7.9-6.8-12.3-15.5-13.7-25.7c-1.3-9.7-0.6-19.4,3.3-28.5c6.6-15.4,18.4-23.8,35.1-25.3
			c8.3-0.8,16.3,0.2,24,3.5c1.4,0.6,1.8,1.4,1.8,2.9c-0.1,4.8-0.1,9.7-0.1,15c-1.2-0.8-2-1.4-2.7-1.9c-6.7-4.6-14.1-6.7-22.2-5.6
			c-10.4,1.4-17.3,7.6-20.9,17.2c-3.3,8.6-3.4,17.4-0.6,26.2c3.9,12.3,14.5,18.5,27.5,17.3c6.1-0.6,11.5-3,16.5-6.7
			c0.5-0.4,1-0.8,1.5-1.1C64.6,105.5,64.8,105.5,65.2,105.4z"/>
		<path class="st0" d="M490.8,128.3c0.3-41.3,0.6-82.4,0.9-123.7c5.2,0,10.4,0.1,15.7,0.1c-0.3,41.2-0.6,82.4-0.9,123.7
			C501.3,128.3,496.1,128.3,490.8,128.3z"/>
		<path class="st0" d="M249.1,126.6c-5.3,0-10.4-0.1-15.6-0.1c0.2-28.2,0.4-56.2,0.6-84.4c5.2,0,10.3,0.1,15.6,0.1
			C249.5,70.2,249.3,98.3,249.1,126.6z"/>
		<path class="st0" d="M285.6,42.4c-0.2,28.1-0.4,56.2-0.6,84.4c-5.2,0-10.4-0.1-15.6-0.1c0.2-28.2,0.4-56.2,0.6-84.4
			C275.1,42.4,280.3,42.4,285.6,42.4z"/>
		<path class="st0" d="M252.5,13.9c0,5.8-4.3,10-10.1,9.9c-5.5-0.1-9.7-4.3-9.7-9.8c0-5.7,4.4-10.2,10-10.1
			C248.3,4,252.5,8.4,252.5,13.9z"/>
		<path class="st0" d="M288.2,14c0.1,5.5-4.1,9.9-9.5,10.1c-5.9,0.1-10.4-4.1-10.4-9.8c0-5.5,4.4-10,9.9-10
			C283.6,4.1,288.1,8.4,288.2,14z"/>
	</g>
	<g>
		<path class="st0" d="M609.8,17.6c0.8,0,1.5,0,2.3,0c0.1,0,0.2,0.1,0.3,0.1c6,0.8,10,4.1,12.1,9.8c0.4,1.1,0.6,2.3,0.8,3.4
			c0,1,0,2,0,3c-0.2,1.1-0.4,2.2-0.7,3.2c-2.7,8.7-12.5,12.8-20.3,8.6c-5.6-3-8.6-9.1-7.7-15.5c0.9-6,5.1-10.7,11-12.2
			C608.2,17.8,609,17.7,609.8,17.6z M623.1,32.4c0-2.6-0.7-5-2.2-7.2c-2.8-4.3-8.1-6.5-12.9-5.2c-9.4,2.5-12.6,14.4-5.8,21.4
			c2.9,3,6.5,4.3,10.7,3.5C618.9,43.8,623.1,38.6,623.1,32.4z"/>
		<path class="st0" d="M615,32.3c1.8,0.7,1.9,2.1,1.9,3.5c0,0.8,0.1,1.6,0.2,2.4c0.1,0.4,0.3,0.8,0.5,1.2c0.1,0.2,0.1,0.4,0.2,0.6
			c-0.8,0-1.5,0-2.2,0c-0.1,0-0.3-0.2-0.4-0.4c-0.2-0.7-0.3-1.4-0.4-2.1c-0.1-0.8,0-1.6-0.1-2.4c-0.2-1.2-0.7-1.8-1.9-1.8
			c-1.9-0.1-3.7,0-5.6,0c0,2.2,0,4.5,0,6.7c-0.7,0-1.4,0-2,0c0-5.2,0-10.4,0-15.6c0.2,0,0.3,0,0.5,0c2.3,0,4.5,0,6.8,0
			c0.6,0,1.1,0.1,1.6,0.1c1.8,0.3,2.8,1.6,3,3.4C617.4,29.7,616.8,31.2,615,32.3z M607.2,26.1c0,1.7,0,3.4,0,5.1
			c0,0.1,0.2,0.3,0.4,0.3c1.8,0,3.5,0,5.3-0.1c1.4-0.1,2.2-1,2.3-2.5c0.1-1.7-0.6-2.7-2.1-2.8C611.1,26,609.2,26.1,607.2,26.1z"/>
	</g>
</g>
</svg>
