<svg xmlns="http://www.w3.org/2000/svg" xmlns:xlink="http://www.w3.org/1999/xlink" id="Layer_1" x="0px" y="0px" viewBox="0 0 61.6 71.9" style="enable-background:new 0 0 61.6 71.9;" xml:space="preserve"><style type="text/css">	.st0{fill:#937162;}</style><g id="Layer_2_00000013908148670249507720000014329056425112089234_">	<g id="icons">		<path class="st0" d="M51,28.1c0-1.5-1-2.7-2.4-3c0,0,0-0.1,0-0.1c-1-13.9-11.9-15.4-14.7-15.5V5.5c0-1.7-1.4-3.1-3.1-3.1   c-1.7,0-3.1,1.4-3.1,3.1v3.9C24.8,9.5,14,10.9,13,24.9c0,0,0,0.1,0,0.1c-1.7,0.3-2.8,2-2.4,3.7c0.3,1.4,1.4,2.4,2.8,2.5l3.8,35.2   c0.2,1.8,1.7,3.1,3.4,3.1H41c1.8,0,3.3-1.3,3.5-3.1l3.8-35.2C49.8,31,51,29.7,51,28.1z M46.6,24.9H33.9V11.4   C36.3,11.4,45.6,12.6,46.6,24.9z M29.7,5.5c0-0.6,0.5-1.1,1.1-1.1s1.1,0.5,1.1,1.1c0,0,0,0,0,0v19.4h-2.2V5.5z M27.7,11.4V25H15   C15.9,12.6,25.2,11.4,27.7,11.4z M42.4,66.2c-0.1,0.8-0.7,1.3-1.5,1.3H20.6c-0.8,0-1.4-0.6-1.5-1.3l-3.7-35h30.8L42.4,66.2z    M47.9,29.2H13.7c-0.6-0.1-1.1-0.6-1-1.2c0.1-0.5,0.5-1,1-1h34.2c0.6-0.1,1.2,0.4,1.2,1s-0.4,1.2-1,1.2   C48,29.2,47.9,29.2,47.9,29.2z"></path>	</g></g></svg>